<mxfile host="app.diagrams.net" modified="2024-07-17T11:21:19.712Z" agent="Mozilla/5.0 (Windows NT 10.0; Win64; x64) AppleWebKit/537.36 (KHTML, like Gecko) Chrome/126.0.0.0 Safari/537.36" etag="aOJlaDDl_hm4NcAKxLsD" version="24.6.4" type="device">
  <diagram name="Page-1" id="JkGz3EWr7mH9SGlrHtyQ">
    <mxGraphModel dx="2389" dy="850" grid="1" gridSize="10" guides="1" tooltips="1" connect="1" arrows="1" fold="1" page="1" pageScale="1" pageWidth="827" pageHeight="1169" math="0" shadow="0">
      <root>
        <mxCell id="0" />
        <mxCell id="1" parent="0" />
        <mxCell id="hBgB5WNWqoKUX2ORy7uX-1" value="" style="rounded=0;whiteSpace=wrap;html=1;" parent="1" vertex="1">
          <mxGeometry x="-340" y="90" width="1300" height="650" as="geometry" />
        </mxCell>
        <mxCell id="hBgB5WNWqoKUX2ORy7uX-6" style="edgeStyle=orthogonalEdgeStyle;rounded=0;orthogonalLoop=1;jettySize=auto;html=1;exitX=1.004;exitY=0.43;exitDx=0;exitDy=0;entryX=0;entryY=0.5;entryDx=0;entryDy=0;startArrow=classic;startFill=1;exitPerimeter=0;" parent="1" source="hBgB5WNWqoKUX2ORy7uX-2" target="hBgB5WNWqoKUX2ORy7uX-5" edge="1">
          <mxGeometry relative="1" as="geometry" />
        </mxCell>
        <mxCell id="hBgB5WNWqoKUX2ORy7uX-2" value="" style="rounded=0;whiteSpace=wrap;html=1;fillColor=#dae8fc;strokeColor=#6c8ebf;" parent="1" vertex="1">
          <mxGeometry x="-305" y="150" width="360" height="500" as="geometry" />
        </mxCell>
        <mxCell id="hBgB5WNWqoKUX2ORy7uX-3" value="" style="rounded=0;whiteSpace=wrap;html=1;fillColor=#dae8fc;strokeColor=#6c8ebf;" parent="1" vertex="1">
          <mxGeometry x="480" y="150" width="440" height="510" as="geometry" />
        </mxCell>
        <mxCell id="hBgB5WNWqoKUX2ORy7uX-4" value="&lt;font style=&quot;font-size: 14px;&quot;&gt;&lt;b&gt;Server (Trusted host)&lt;/b&gt;&lt;/font&gt;" style="text;html=1;align=center;verticalAlign=middle;whiteSpace=wrap;rounded=0;" parent="1" vertex="1">
          <mxGeometry x="635" y="150" width="150" height="30" as="geometry" />
        </mxCell>
        <mxCell id="hBgB5WNWqoKUX2ORy7uX-5" value="" style="rounded=0;whiteSpace=wrap;html=1;fillColor=#e1d5e7;strokeColor=#9673a6;" parent="1" vertex="1">
          <mxGeometry x="210" y="290" width="140" height="150" as="geometry" />
        </mxCell>
        <mxCell id="hBgB5WNWqoKUX2ORy7uX-7" style="edgeStyle=orthogonalEdgeStyle;rounded=0;orthogonalLoop=1;jettySize=auto;html=1;exitX=1;exitY=0.5;exitDx=0;exitDy=0;startArrow=classic;startFill=1;" parent="1" source="hBgB5WNWqoKUX2ORy7uX-5" edge="1">
          <mxGeometry relative="1" as="geometry">
            <mxPoint x="481" y="340" as="targetPoint" />
            <Array as="points">
              <mxPoint x="410" y="365" />
              <mxPoint x="410" y="340" />
            </Array>
          </mxGeometry>
        </mxCell>
        <mxCell id="hBgB5WNWqoKUX2ORy7uX-11" value="&lt;font style=&quot;font-size: 14px;&quot;&gt;&lt;b&gt;//&lt;/b&gt;&lt;/font&gt;" style="edgeLabel;html=1;align=center;verticalAlign=middle;resizable=0;points=[];" parent="hBgB5WNWqoKUX2ORy7uX-7" vertex="1" connectable="0">
          <mxGeometry x="-0.0693" relative="1" as="geometry">
            <mxPoint as="offset" />
          </mxGeometry>
        </mxCell>
        <mxCell id="hBgB5WNWqoKUX2ORy7uX-25" style="edgeStyle=orthogonalEdgeStyle;rounded=0;orthogonalLoop=1;jettySize=auto;html=1;exitX=0;exitY=0.5;exitDx=0;exitDy=0;exitPerimeter=0;entryX=0.5;entryY=1;entryDx=0;entryDy=0;" parent="1" source="hBgB5WNWqoKUX2ORy7uX-8" target="hBgB5WNWqoKUX2ORy7uX-12" edge="1">
          <mxGeometry relative="1" as="geometry" />
        </mxCell>
        <mxCell id="hBgB5WNWqoKUX2ORy7uX-27" value="&lt;font style=&quot;font-size: 14px;&quot;&gt;Get modelled data&lt;/font&gt;" style="edgeLabel;html=1;align=center;verticalAlign=middle;resizable=0;points=[];labelBackgroundColor=#DAE8FC;" parent="hBgB5WNWqoKUX2ORy7uX-25" vertex="1" connectable="0">
          <mxGeometry x="0.1701" y="-1" relative="1" as="geometry">
            <mxPoint as="offset" />
          </mxGeometry>
        </mxCell>
        <mxCell id="hBgB5WNWqoKUX2ORy7uX-8" value="Data" style="shape=cylinder3;whiteSpace=wrap;html=1;boundedLbl=1;backgroundOutline=1;size=15;fillColor=#cce5ff;strokeColor=#36393d;" parent="1" vertex="1">
          <mxGeometry x="680" y="540" width="60" height="80" as="geometry" />
        </mxCell>
        <mxCell id="hBgB5WNWqoKUX2ORy7uX-9" value="&lt;font style=&quot;font-size: 14px;&quot;&gt;Gatekeeper&amp;nbsp; exposes endpoints to clients&lt;/font&gt;" style="text;html=1;align=center;verticalAlign=middle;whiteSpace=wrap;rounded=0;" parent="1" vertex="1">
          <mxGeometry x="100" y="280" width="70" height="70" as="geometry" />
        </mxCell>
        <mxCell id="hBgB5WNWqoKUX2ORy7uX-12" value="Restful API Endpoints" style="rounded=0;whiteSpace=wrap;html=1;fillColor=#cce5ff;strokeColor=#36393d;" parent="1" vertex="1">
          <mxGeometry x="500" y="310" width="110" height="60" as="geometry" />
        </mxCell>
        <mxCell id="hBgB5WNWqoKUX2ORy7uX-21" value="&lt;font style=&quot;font-size: 14px;&quot;&gt;Gatekeeper may be decoupled from trusted hosts&lt;/font&gt;" style="text;html=1;align=center;verticalAlign=middle;whiteSpace=wrap;rounded=0;" parent="1" vertex="1">
          <mxGeometry x="374" y="260" width="80" height="70" as="geometry" />
        </mxCell>
        <mxCell id="hBgB5WNWqoKUX2ORy7uX-22" value="&lt;font style=&quot;font-size: 14px;&quot;&gt;HTTPS&lt;/font&gt;&lt;div&gt;&lt;font style=&quot;font-size: 14px;&quot;&gt;JWT Tokens&lt;/font&gt;&lt;/div&gt;" style="text;html=1;align=center;verticalAlign=middle;whiteSpace=wrap;rounded=0;" parent="1" vertex="1">
          <mxGeometry x="90" y="370" width="90" height="60" as="geometry" />
        </mxCell>
        <mxCell id="hBgB5WNWqoKUX2ORy7uX-23" value="" style="rounded=0;whiteSpace=wrap;html=1;fillColor=#F8CECC;strokeColor=#b85450;" parent="1" vertex="1">
          <mxGeometry x="670" y="190" width="190" height="330" as="geometry" />
        </mxCell>
        <mxCell id="hBgB5WNWqoKUX2ORy7uX-16" style="edgeStyle=orthogonalEdgeStyle;rounded=0;orthogonalLoop=1;jettySize=auto;html=1;exitX=1;exitY=0.5;exitDx=0;exitDy=0;entryX=0;entryY=0.5;entryDx=0;entryDy=0;startArrow=none;startFill=0;" parent="1" source="hBgB5WNWqoKUX2ORy7uX-12" target="hBgB5WNWqoKUX2ORy7uX-13" edge="1">
          <mxGeometry relative="1" as="geometry">
            <Array as="points">
              <mxPoint x="630" y="340" />
              <mxPoint x="630" y="260" />
            </Array>
          </mxGeometry>
        </mxCell>
        <mxCell id="hBgB5WNWqoKUX2ORy7uX-28" value="&lt;b&gt;Upload reports&lt;/b&gt;" style="edgeLabel;html=1;align=center;verticalAlign=middle;resizable=0;points=[];labelBackgroundColor=#DAE8FC;" parent="hBgB5WNWqoKUX2ORy7uX-16" vertex="1" connectable="0">
          <mxGeometry x="-0.1765" y="-1" relative="1" as="geometry">
            <mxPoint x="-11" y="-10" as="offset" />
          </mxGeometry>
        </mxCell>
        <mxCell id="hBgB5WNWqoKUX2ORy7uX-13" value="Scan reports" style="rounded=0;whiteSpace=wrap;html=1;fillColor=#ffcccc;strokeColor=#36393d;" parent="1" vertex="1">
          <mxGeometry x="700" y="230" width="120" height="60" as="geometry" />
        </mxCell>
        <mxCell id="hBgB5WNWqoKUX2ORy7uX-14" value="Standardize" style="rounded=0;whiteSpace=wrap;html=1;fillColor=#ffcccc;strokeColor=#36393d;" parent="1" vertex="1">
          <mxGeometry x="700" y="320" width="120" height="60" as="geometry" />
        </mxCell>
        <mxCell id="hBgB5WNWqoKUX2ORy7uX-15" value="Model data" style="rounded=0;whiteSpace=wrap;html=1;fillColor=#ffcccc;strokeColor=#36393d;" parent="1" vertex="1">
          <mxGeometry x="700" y="420" width="120" height="60" as="geometry" />
        </mxCell>
        <mxCell id="hBgB5WNWqoKUX2ORy7uX-19" style="edgeStyle=orthogonalEdgeStyle;rounded=0;orthogonalLoop=1;jettySize=auto;html=1;exitX=0.5;exitY=1;exitDx=0;exitDy=0;entryX=0.5;entryY=0;entryDx=0;entryDy=0;entryPerimeter=0;" parent="1" source="hBgB5WNWqoKUX2ORy7uX-15" target="hBgB5WNWqoKUX2ORy7uX-8" edge="1">
          <mxGeometry relative="1" as="geometry">
            <Array as="points">
              <mxPoint x="760" y="500" />
              <mxPoint x="710" y="500" />
            </Array>
          </mxGeometry>
        </mxCell>
        <mxCell id="hBgB5WNWqoKUX2ORy7uX-20" value="&lt;font style=&quot;font-size: 14px;&quot;&gt;Store&lt;/font&gt;" style="edgeLabel;html=1;align=center;verticalAlign=middle;resizable=0;points=[];labelBackgroundColor=#F8CECC;" parent="hBgB5WNWqoKUX2ORy7uX-19" vertex="1" connectable="0">
          <mxGeometry x="-0.05" relative="1" as="geometry">
            <mxPoint as="offset" />
          </mxGeometry>
        </mxCell>
        <mxCell id="hBgB5WNWqoKUX2ORy7uX-17" style="edgeStyle=orthogonalEdgeStyle;rounded=0;orthogonalLoop=1;jettySize=auto;html=1;exitX=0.5;exitY=1;exitDx=0;exitDy=0;entryX=0.5;entryY=0;entryDx=0;entryDy=0;startArrow=none;startFill=0;" parent="1" source="hBgB5WNWqoKUX2ORy7uX-13" target="hBgB5WNWqoKUX2ORy7uX-14" edge="1">
          <mxGeometry relative="1" as="geometry" />
        </mxCell>
        <mxCell id="hBgB5WNWqoKUX2ORy7uX-29" value="Valid reports" style="edgeLabel;html=1;align=center;verticalAlign=middle;resizable=0;points=[];labelBackgroundColor=#F8CECC;" parent="hBgB5WNWqoKUX2ORy7uX-17" vertex="1" connectable="0">
          <mxGeometry x="-0.1333" y="-2" relative="1" as="geometry">
            <mxPoint as="offset" />
          </mxGeometry>
        </mxCell>
        <mxCell id="hBgB5WNWqoKUX2ORy7uX-18" style="edgeStyle=orthogonalEdgeStyle;rounded=0;orthogonalLoop=1;jettySize=auto;html=1;exitX=0.5;exitY=1;exitDx=0;exitDy=0;entryX=0.5;entryY=0;entryDx=0;entryDy=0;" parent="1" source="hBgB5WNWqoKUX2ORy7uX-14" target="hBgB5WNWqoKUX2ORy7uX-15" edge="1">
          <mxGeometry relative="1" as="geometry" />
        </mxCell>
        <mxCell id="hBgB5WNWqoKUX2ORy7uX-30" value="Standardized report" style="edgeLabel;html=1;align=center;verticalAlign=middle;resizable=0;points=[];labelBackgroundColor=#F8CECC;" parent="hBgB5WNWqoKUX2ORy7uX-18" vertex="1" connectable="0">
          <mxGeometry x="-0.3333" relative="1" as="geometry">
            <mxPoint y="7" as="offset" />
          </mxGeometry>
        </mxCell>
        <mxCell id="hBgB5WNWqoKUX2ORy7uX-24" value="&lt;font style=&quot;font-size: 14px;&quot;&gt;&lt;b&gt;Pipe and filter&lt;/b&gt;&lt;/font&gt;" style="text;html=1;align=center;verticalAlign=middle;whiteSpace=wrap;rounded=0;" parent="1" vertex="1">
          <mxGeometry x="710" y="190" width="100" height="30" as="geometry" />
        </mxCell>
        <mxCell id="hBgB5WNWqoKUX2ORy7uX-31" value="&lt;font style=&quot;font-size: 14px;&quot;&gt;&lt;b&gt;CoVAR System&lt;/b&gt;&lt;/font&gt;" style="text;html=1;align=center;verticalAlign=middle;whiteSpace=wrap;rounded=0;" parent="1" vertex="1">
          <mxGeometry x="225" y="90" width="110" height="30" as="geometry" />
        </mxCell>
        <mxCell id="hBgB5WNWqoKUX2ORy7uX-32" style="edgeStyle=orthogonalEdgeStyle;rounded=0;orthogonalLoop=1;jettySize=auto;html=1;exitX=0;exitY=0.5;exitDx=0;exitDy=0;entryX=-0.002;entryY=0.373;entryDx=0;entryDy=0;entryPerimeter=0;" parent="1" source="hBgB5WNWqoKUX2ORy7uX-12" target="hBgB5WNWqoKUX2ORy7uX-3" edge="1">
          <mxGeometry relative="1" as="geometry" />
        </mxCell>
        <mxCell id="xGEvscRxUe-hGIo14Rng-1" value="&lt;font style=&quot;font-size: 14px;&quot;&gt;Gatekeeper validates and sanitizes requests&lt;/font&gt;" style="text;html=1;align=center;verticalAlign=middle;whiteSpace=wrap;rounded=0;" vertex="1" parent="1">
          <mxGeometry x="225" y="360" width="110" height="70" as="geometry" />
        </mxCell>
        <mxCell id="xGEvscRxUe-hGIo14Rng-3" value="&lt;font style=&quot;font-size: 14px;&quot;&gt;&lt;b&gt;Client&lt;/b&gt;&lt;/font&gt;" style="text;html=1;align=center;verticalAlign=middle;whiteSpace=wrap;rounded=0;" vertex="1" parent="1">
          <mxGeometry x="-155" y="200" width="60" height="30" as="geometry" />
        </mxCell>
        <mxCell id="xGEvscRxUe-hGIo14Rng-24" style="rounded=0;orthogonalLoop=1;jettySize=auto;html=1;exitX=0.5;exitY=1;exitDx=0;exitDy=0;entryX=0.5;entryY=0;entryDx=0;entryDy=0;startArrow=classic;startFill=1;" edge="1" parent="1" source="xGEvscRxUe-hGIo14Rng-20" target="xGEvscRxUe-hGIo14Rng-22">
          <mxGeometry relative="1" as="geometry" />
        </mxCell>
        <mxCell id="xGEvscRxUe-hGIo14Rng-25" value="&lt;font style=&quot;font-size: 12px;&quot;&gt;2-Way Binding&lt;/font&gt;" style="edgeLabel;html=1;align=center;verticalAlign=middle;resizable=0;points=[];fillColor=#DAE8FC;labelBackgroundColor=#DAE8FC;" vertex="1" connectable="0" parent="xGEvscRxUe-hGIo14Rng-24">
          <mxGeometry x="-0.0489" y="1" relative="1" as="geometry">
            <mxPoint as="offset" />
          </mxGeometry>
        </mxCell>
        <mxCell id="xGEvscRxUe-hGIo14Rng-20" value="" style="rounded=0;whiteSpace=wrap;html=1;fillColor=#d5e8d4;strokeColor=#82b366;" vertex="1" parent="1">
          <mxGeometry x="-285" y="190" width="310" height="280" as="geometry" />
        </mxCell>
        <mxCell id="xGEvscRxUe-hGIo14Rng-7" value="&lt;font style=&quot;font-size: 14px;&quot;&gt;Organisation&lt;/font&gt;&lt;div&gt;&lt;font style=&quot;font-size: 14px;&quot;&gt;Component&lt;/font&gt;&lt;/div&gt;" style="html=1;dropTarget=0;whiteSpace=wrap;fillColor=#cdeb8b;strokeColor=#36393d;" vertex="1" parent="1">
          <mxGeometry x="-275" y="310" width="140" height="60" as="geometry" />
        </mxCell>
        <mxCell id="xGEvscRxUe-hGIo14Rng-8" value="" style="shape=module;jettyWidth=8;jettyHeight=4;" vertex="1" parent="xGEvscRxUe-hGIo14Rng-7">
          <mxGeometry x="1" width="20" height="20" relative="1" as="geometry">
            <mxPoint x="-27" y="7" as="offset" />
          </mxGeometry>
        </mxCell>
        <mxCell id="xGEvscRxUe-hGIo14Rng-9" value="&lt;font style=&quot;font-size: 14px;&quot;&gt;Evaluate&lt;/font&gt;&lt;div&gt;&lt;font style=&quot;font-size: 14px;&quot;&gt;Component&lt;/font&gt;&lt;/div&gt;" style="html=1;dropTarget=0;whiteSpace=wrap;fillColor=#cdeb8b;strokeColor=#36393d;" vertex="1" parent="1">
          <mxGeometry x="-125" y="230" width="140" height="60" as="geometry" />
        </mxCell>
        <mxCell id="xGEvscRxUe-hGIo14Rng-10" value="" style="shape=module;jettyWidth=8;jettyHeight=4;" vertex="1" parent="xGEvscRxUe-hGIo14Rng-9">
          <mxGeometry x="1" width="20" height="20" relative="1" as="geometry">
            <mxPoint x="-27" y="7" as="offset" />
          </mxGeometry>
        </mxCell>
        <mxCell id="xGEvscRxUe-hGIo14Rng-11" value="&lt;font style=&quot;font-size: 14px;&quot;&gt;Dashboard&lt;br&gt;Component&lt;/font&gt;" style="html=1;dropTarget=0;whiteSpace=wrap;fillColor=#cdeb8b;strokeColor=#36393d;" vertex="1" parent="1">
          <mxGeometry x="-275" y="230" width="140" height="60" as="geometry" />
        </mxCell>
        <mxCell id="xGEvscRxUe-hGIo14Rng-12" value="" style="shape=module;jettyWidth=8;jettyHeight=4;" vertex="1" parent="xGEvscRxUe-hGIo14Rng-11">
          <mxGeometry x="1" width="20" height="20" relative="1" as="geometry">
            <mxPoint x="-27" y="7" as="offset" />
          </mxGeometry>
        </mxCell>
        <mxCell id="xGEvscRxUe-hGIo14Rng-13" value="&lt;font style=&quot;font-size: 14px;&quot;&gt;Admin tools&lt;br&gt;Component&lt;/font&gt;" style="html=1;dropTarget=0;whiteSpace=wrap;fillColor=#cdeb8b;strokeColor=#36393d;" vertex="1" parent="1">
          <mxGeometry x="-125" y="310" width="140" height="60" as="geometry" />
        </mxCell>
        <mxCell id="xGEvscRxUe-hGIo14Rng-14" value="" style="shape=module;jettyWidth=8;jettyHeight=4;" vertex="1" parent="xGEvscRxUe-hGIo14Rng-13">
          <mxGeometry x="1" width="20" height="20" relative="1" as="geometry">
            <mxPoint x="-27" y="7" as="offset" />
          </mxGeometry>
        </mxCell>
        <mxCell id="xGEvscRxUe-hGIo14Rng-15" value="&lt;span style=&quot;font-size: 14px;&quot;&gt;Help&lt;br&gt;Component&lt;/span&gt;" style="html=1;dropTarget=0;whiteSpace=wrap;fillColor=#cdeb8b;strokeColor=#36393d;" vertex="1" parent="1">
          <mxGeometry x="-125" y="390" width="140" height="60" as="geometry" />
        </mxCell>
        <mxCell id="xGEvscRxUe-hGIo14Rng-16" value="" style="shape=module;jettyWidth=8;jettyHeight=4;" vertex="1" parent="xGEvscRxUe-hGIo14Rng-15">
          <mxGeometry x="1" width="20" height="20" relative="1" as="geometry">
            <mxPoint x="-27" y="7" as="offset" />
          </mxGeometry>
        </mxCell>
        <mxCell id="xGEvscRxUe-hGIo14Rng-17" value="&lt;span style=&quot;font-size: 14px;&quot;&gt;Account&lt;br&gt;Component&lt;/span&gt;" style="html=1;dropTarget=0;whiteSpace=wrap;fillColor=#cdeb8b;strokeColor=#36393d;" vertex="1" parent="1">
          <mxGeometry x="-275" y="390" width="140" height="60" as="geometry" />
        </mxCell>
        <mxCell id="xGEvscRxUe-hGIo14Rng-18" value="" style="shape=module;jettyWidth=8;jettyHeight=4;" vertex="1" parent="xGEvscRxUe-hGIo14Rng-17">
          <mxGeometry x="1" width="20" height="20" relative="1" as="geometry">
            <mxPoint x="-27" y="7" as="offset" />
          </mxGeometry>
        </mxCell>
        <mxCell id="xGEvscRxUe-hGIo14Rng-21" value="&lt;font style=&quot;font-size: 14px;&quot;&gt;&lt;span style=&quot;font-weight: normal;&quot;&gt;View&lt;/span&gt;&lt;/font&gt;" style="text;html=1;align=center;verticalAlign=middle;whiteSpace=wrap;rounded=0;fontStyle=1" vertex="1" parent="1">
          <mxGeometry x="-160" y="190" width="60" height="30" as="geometry" />
        </mxCell>
        <mxCell id="xGEvscRxUe-hGIo14Rng-26" style="edgeStyle=orthogonalEdgeStyle;rounded=0;orthogonalLoop=1;jettySize=auto;html=1;exitX=0;exitY=0.5;exitDx=0;exitDy=0;entryX=1;entryY=0.5;entryDx=0;entryDy=0;" edge="1" parent="1" source="xGEvscRxUe-hGIo14Rng-22" target="xGEvscRxUe-hGIo14Rng-23">
          <mxGeometry relative="1" as="geometry" />
        </mxCell>
        <mxCell id="xGEvscRxUe-hGIo14Rng-27" value="&lt;font style=&quot;font-size: 12px;&quot;&gt;Update&lt;/font&gt;" style="edgeLabel;html=1;align=center;verticalAlign=middle;resizable=0;points=[];labelBackgroundColor=#DAE8FC;" vertex="1" connectable="0" parent="xGEvscRxUe-hGIo14Rng-26">
          <mxGeometry x="0.1067" y="-1" relative="1" as="geometry">
            <mxPoint x="3" y="1" as="offset" />
          </mxGeometry>
        </mxCell>
        <mxCell id="xGEvscRxUe-hGIo14Rng-22" value="&lt;font style=&quot;font-size: 14px;&quot;&gt;ViewModel&lt;/font&gt;" style="rounded=0;whiteSpace=wrap;html=1;fillColor=#d5e8d4;strokeColor=#82b366;" vertex="1" parent="1">
          <mxGeometry x="-95" y="535" width="120" height="60" as="geometry" />
        </mxCell>
        <mxCell id="xGEvscRxUe-hGIo14Rng-28" style="edgeStyle=orthogonalEdgeStyle;rounded=0;orthogonalLoop=1;jettySize=auto;html=1;exitX=1;exitY=0.25;exitDx=0;exitDy=0;entryX=0;entryY=0.25;entryDx=0;entryDy=0;dashed=1;" edge="1" parent="1" source="xGEvscRxUe-hGIo14Rng-23" target="xGEvscRxUe-hGIo14Rng-22">
          <mxGeometry relative="1" as="geometry" />
        </mxCell>
        <mxCell id="xGEvscRxUe-hGIo14Rng-29" value="&lt;font style=&quot;font-size: 12px;&quot;&gt;Notifies&lt;/font&gt;" style="edgeLabel;html=1;align=center;verticalAlign=middle;resizable=0;points=[];labelBackgroundColor=#DAE8FC;" vertex="1" connectable="0" parent="xGEvscRxUe-hGIo14Rng-28">
          <mxGeometry x="-0.055" y="1" relative="1" as="geometry">
            <mxPoint as="offset" />
          </mxGeometry>
        </mxCell>
        <mxCell id="xGEvscRxUe-hGIo14Rng-23" value="&lt;font style=&quot;font-size: 14px;&quot;&gt;Model&lt;/font&gt;" style="rounded=0;whiteSpace=wrap;html=1;fillColor=#d5e8d4;strokeColor=#82b366;" vertex="1" parent="1">
          <mxGeometry x="-295" y="535" width="120" height="60" as="geometry" />
        </mxCell>
        <mxCell id="xGEvscRxUe-hGIo14Rng-30" value="&lt;font style=&quot;font-size: 14px;&quot;&gt;&lt;b&gt;Client&lt;/b&gt;&lt;/font&gt;" style="text;html=1;align=center;verticalAlign=middle;whiteSpace=wrap;rounded=0;" vertex="1" parent="1">
          <mxGeometry x="-155" y="150" width="60" height="30" as="geometry" />
        </mxCell>
        <mxCell id="xGEvscRxUe-hGIo14Rng-31" value="&lt;font style=&quot;font-size: 14px;&quot;&gt;&lt;b&gt;Gatekeeper&lt;/b&gt;&lt;/font&gt;" style="text;html=1;align=center;verticalAlign=middle;whiteSpace=wrap;rounded=0;" vertex="1" parent="1">
          <mxGeometry x="250" y="300" width="60" height="30" as="geometry" />
        </mxCell>
      </root>
    </mxGraphModel>
  </diagram>
</mxfile>
